<svg width="21" height="21" viewBox="0 0 21 21" fill="none" xmlns="http://www.w3.org/2000/svg">
<g clip-path="url(#clip0_1949_160)">
<path d="M21 10.5C21 4.70101 16.299 0 10.5 0C4.70101 0 0 4.70101 0 10.5C0 16.299 4.70101 21 10.5 21C16.299 21 21 16.299 21 10.5Z" fill="black"/>
<path d="M19.7695 10.5C19.7695 15.6194 15.6194 19.7695 10.5 19.7695C5.38058 19.7695 1.23047 15.6194 1.23047 10.5C1.23047 5.38058 5.38058 1.23047 10.5 1.23047C15.6194 1.23047 19.7695 5.38058 19.7695 10.5ZM2.15742 10.5C2.15742 15.1074 5.89252 18.8426 10.5 18.8426C15.1074 18.8426 18.8426 15.1074 18.8426 10.5C18.8426 5.89252 15.1074 2.15742 10.5 2.15742C5.89252 2.15742 2.15742 5.89252 2.15742 10.5Z" fill="#00C0C5"/>
<mask id="mask0_1949_160" style="mask-type:luminance" maskUnits="userSpaceOnUse" x="5" y="5" width="11" height="12">
<path d="M16 5H5V16.2115H16V5Z" fill="white"/>
</mask>
<g mask="url(#mask0_1949_160)">
<path d="M0.376953 3.87799C5.39201 7.76631 15.6803 7.76631 20.6954 3.87799V2.07227C15.6803 7.25548 5.39201 7.25548 0.376953 2.07227C0.376953 2.67287 0.376953 3.27348 0.376953 3.87799Z" fill="white"/>
<path d="M0.376953 7.69414C5.39201 9.31659 15.6803 9.31659 20.6954 7.69414V5.88843C15.6803 8.80177 5.39201 8.80177 0.376953 5.88843C0.376953 6.48904 0.376953 7.08965 0.376953 7.69414Z" fill="white"/>
<path d="M0.376953 11.5078C5.39201 10.8604 15.6803 10.8604 20.6954 11.5078V9.70215C15.6803 10.3495 5.39201 10.3495 0.376953 9.70215C0.376953 10.3027 0.376953 10.9034 0.376953 11.5078Z" fill="white"/>
<path d="M0.376953 15.3253C5.39201 12.4119 15.6803 12.4119 20.6954 15.3253V13.5196C15.6803 11.8971 5.39201 11.8971 0.376953 13.5196C0.376953 14.1202 0.376953 14.7208 0.376953 15.3253Z" fill="white"/>
<path d="M0.376953 19.1397C5.39201 13.9566 15.6803 13.9566 20.6954 19.1397V17.334C15.6803 13.4456 5.39201 13.4456 0.376953 17.334C0.376953 17.9347 0.376953 18.5352 0.376953 19.1397Z" fill="white"/>
<path fill-rule="evenodd" clip-rule="evenodd" d="M4.87109 8.27319H5.98518V11.0612H4.87109V8.27319ZM16.012 13.2915H14.8978V11.0612H16.012V13.2915Z" fill="white"/>
</g>
</g>
<defs>
<clipPath id="clip0_1949_160">
<rect width="21" height="21" fill="white"/>
</clipPath>
</defs>
</svg>
